<?xml version="1.0" encoding="utf-8"?>
<!-- Generator: Adobe Illustrator 18.0.0, SVG Export Plug-In . SVG Version: 6.00 Build 0)  -->
<!DOCTYPE svg PUBLIC "-//W3C//DTD SVG 1.1//EN" "http://www.w3.org/Graphics/SVG/1.1/DTD/svg11.dtd">
<svg version="1.1" xmlns="http://www.w3.org/2000/svg" xmlns:xlink="http://www.w3.org/1999/xlink" x="0px" y="0px"
	 viewBox="0 0 260.8 324.4" enable-background="new 0 0 260.8 324.4" xml:space="preserve">
<g id="Layer_2">
</g>
<g id="Layer_1">
	<path fill="#004463" d="M251.7,190.3c-3-0.8-30.4,26.8-30.3,27.5c3.7,1.6,7.5,3,11,4.7c-9.2,27.1-32.1,40.4-58.1,35.2
		c-15.1-3-25.2-15-26.1-31.8c-1.1-21.1-4.4-87-4.4-91.5c6.1-0.6,16-0.7,22.3-1.2c3.6-0.3,19-0.7,26.9-0.6c3.2,3.6,7.9,5.9,13.2,5.9
		c9.7,0,17.7-7.9,17.7-17.7c0-9.7-7.9-17.6-17.7-17.6c-5.5,0-10.4,2.5-13.7,6.5c-1,0-2-0.1-2.9-0.2c-8.8-0.6-37.8-1.4-46.5-2.1
		c-2.3-10.7-2-28.1,6-34.5c0,0,0,0,0,0C161,66.2,169,53.5,169,39c0-21.2-17-38.5-38.1-38.9c-0.1,0-0.1,0-0.2,0c-0.1,0-0.2,0-0.3,0
		c-0.1,0-0.2,0-0.3,0c-0.1,0-0.1,0-0.2,0C108.8,0.5,91.9,17.8,91.9,39c0,14.6,8,27.2,19.8,33.9c0,0,0,0,0,0c8,6.5,8.3,23.9,6,34.5
		c-8.6,0.7-37.7,1.5-46.5,2.1c-1,0.1-1.9,0.1-2.9,0.2c-3.3-4-8.2-6.5-13.7-6.5c-9.7,0-17.7,7.9-17.7,17.6c0,9.8,7.9,17.7,17.7,17.7
		c5.2,0,10-2.3,13.2-5.9c7.9,0,23.3,0.3,26.9,0.6c6.3,0.6,16.2,0.7,22.3,1.2c0,4.6-3.3,70.5-4.4,91.5c-0.9,16.7-11,28.7-26.1,31.8
		c-26,5.2-48.9-8.1-58.1-35.2c3.5-1.7,7.3-3.1,11-4.7c0-0.7-27.3-28.3-30.3-27.5c-2.5,0.6-10,39.9-9,40.5c2.3-0.3,6.3-1.6,11.5-2.9
		c4,9.1,9.5,22.9,15.3,30.9c15,20.4,36.5,32,59.5,41.3c14.8,6,30.1,11.3,41.4,23.7c0.4,0.5,1.5,0.6,2.7,0.5c1.2,0.1,2.2-0.1,2.7-0.5
		c11.3-12.4,26.5-17.8,41.4-23.7c23-9.3,44.5-20.9,59.5-41.3c5.8-7.9,11.3-21.7,15.3-30.8c5.3,1.3,9.2,2.6,11.5,2.9
		C261.8,230.2,254.2,190.9,251.7,190.3z M130.4,56.9c-9.7-0.2-17.5-8.2-17.5-17.9c0-9.7,7.8-17.7,17.5-17.9
		c9.7,0.2,17.5,8.2,17.5,17.9C147.9,48.7,140.1,56.6,130.4,56.9z"/>
</g>
<g id="Layer_3">
</g>
</svg>
