<svg xmlns="http://www.w3.org/2000/svg" width="155.934" height="42.173" viewBox="0 0 155.934 42.173"><g fill="#ff1e23"><path d="M61.06 8.935h13.55v31.6H61.06v-7.131l-7.79 8.764c-7.7 0-17.466-6.734-17.466-17.466A17.527 17.527 0 0 1 53.27 7.236L61.06 16ZM49.353 24.704a5.853 5.853 0 1 0 5.853-5.853 5.829 5.829 0 0 0-5.853 5.853Zm70.026-15.768H78.19v11.707h14.992L78.19 35.199v5.335h36.572V28.77h-15.87Z"/><path d="M155.933 13.396v-4.46h-36.594v11.707h15l-20.487 19.891h42.067V28.77h-15.867ZM33.329 20.619V8.935H18.854V0H5.326v8.935H0v11.684h5.326v6.648a13.266 13.266 0 0 0 13.266 13.266h14.737V28.772H18.854v-8.153Z"/></g></svg>