<svg id="Icon_-_Calendar" data-name="Icon - Calendar" xmlns="http://www.w3.org/2000/svg" width="29.837" height="29.803" viewBox="0 0 29.837 29.803">
  <rect id="Square" width="29.803" height="29.803" fill="none"/>
  <path id="Icon_-_Calendar-2" data-name="Icon - Calendar" d="M2546.117-2067.993q-.088-8.1-.177-16.195a1.035,1.035,0,0,0-.042-.274c-.538-3.072-4.082-2.978-6.95-2.835q.008-.375.015-.749a.978.978,0,0,0-1.955,0q-.008.408-.016.817c-3.886-.02-7.773-.022-11.658.032.008-.272.014-.544.011-.816a.978.978,0,0,0-1.955,0c0,.283,0,.566-.012.849-.337.006-.675.01-1.011.017-1.781.04-4.015-.264-5.115,1.48a4.154,4.154,0,0,0-.461,2.365l.032,8.1c.01,2.552-.014,5.106.031,7.656a3.618,3.618,0,0,0,.852,2.641c1.378,1.432,4.137,1.036,5.944,1.078,5.346.125,10.771.114,16.117-.049,1.946-.06,4.809.164,5.947-1.775A4.286,4.286,0,0,0,2546.117-2067.993Zm-27.374-16.051c.226-1.317,2.688-1.333,4.556-1.256a15.178,15.178,0,0,0,.02,1.629c.091,1.247,2.047,1.257,1.955,0a15.088,15.088,0,0,1-.021-1.569q3.449-.045,6.9-.045c1.611,0,3.222.008,4.833.016.007.381.018.762.042,1.143.077,1.25,2.032,1.259,1.955,0-.023-.382-.035-.765-.041-1.148,1.5-.068,4.882-.4,5.046,1.087q.016,1.464.032,2.929c-3.565-.38-7.329.058-10.889.1-4.818.052-9.634-.255-14.452-.352A11.733,11.733,0,0,1,2518.743-2084.044Zm25.428,16.842c-.245,1.231-1.415,1.165-2.414,1.249-1.1.092-2.2.136-3.31.138-2.376,0-4.753-.01-7.129.006-2.3.016-4.608.076-6.913.046-1.391-.018-5.288.469-5.594-1.233a28.014,28.014,0,0,1-.018-4.609q-.016-3.976-.032-7.953c4.658.1,9.316.4,13.974.354,2.277-.02,4.553-.077,6.83-.113a33.755,33.755,0,0,1,4.473.01q.041,3.693.081,7.386A24.722,24.722,0,0,1,2544.171-2067.2Z" transform="translate(-2516.283 2090.728)" fill="#131313" opacity="0.85"/>
</svg>
