<svg id="Icon_-_Calendar" data-name="Icon - Calendar" xmlns="http://www.w3.org/2000/svg" width="24.715" height="21.279" viewBox="0 0 24.715 21.279">
  <path id="Icon_-_Calendar-2" data-name="Icon - Calendar" d="M2541.5-2071.3q-.074-6.824-.149-13.647a.865.865,0,0,0-.036-.231c-.453-2.589-3.44-2.509-5.856-2.389q.007-.316.012-.631a.824.824,0,0,0-1.647,0q-.007.344-.013.688c-3.274-.017-6.55-.018-9.824.027.007-.229.012-.458.009-.688a.824.824,0,0,0-1.647,0c0,.239,0,.477-.01.715-.284.005-.568.009-.852.014-1.5.033-3.383-.223-4.31,1.247a3.5,3.5,0,0,0-.388,1.993l.027,6.829c.009,2.15-.012,4.3.026,6.452a3.05,3.05,0,0,0,.718,2.226c1.162,1.206,3.486.873,5.009.908,4.505.1,9.077.1,13.581-.042,1.64-.05,4.052.138,5.011-1.5A3.612,3.612,0,0,0,2541.5-2071.3Zm-23.067-13.525c.19-1.11,2.265-1.124,3.839-1.059a12.814,12.814,0,0,0,.017,1.373c.077,1.051,1.725,1.059,1.647,0a12.638,12.638,0,0,1-.018-1.322q2.906-.038,5.813-.038c1.358,0,2.715.006,4.073.013.006.322.015.643.035.963.065,1.053,1.712,1.061,1.647,0-.02-.322-.029-.645-.035-.968,1.262-.058,4.114-.337,4.252.916q.014,1.234.027,2.468a79.786,79.786,0,0,0-9.176.081c-4.06.044-8.118-.215-12.178-.3A9.9,9.9,0,0,1,2518.435-2084.822Zm21.427,14.192c-.206,1.037-1.192.982-2.034,1.052-.931.078-1.855.115-2.789.116-2,0-4-.008-6.007.005-1.941.014-3.883.064-5.825.039-1.172-.015-4.456.4-4.714-1.04a23.6,23.6,0,0,1-.016-3.884q-.014-3.35-.027-6.7c3.925.082,7.85.333,11.775.3,1.919-.017,3.837-.064,5.755-.095a28.425,28.425,0,0,1,3.77.008q.034,3.111.068,6.224A20.827,20.827,0,0,1,2539.863-2070.63Z" transform="translate(-2516.79 2088.989)" fill="#bfb7b1" opacity="0.85"/>
</svg>
