<svg id="Icon_-_Call" data-name="Icon - Call" xmlns="http://www.w3.org/2000/svg" width="27.953" height="27.988" viewBox="0 0 27.953 27.988">
  <path id="Icon_-_Call-2" data-name="Icon - Call" d="M2401.319-1654.188c-.437-2.705-2.8-6.386-6.03-5.013-1.32.561-2.419,1.928-3.416,2.936-.858.868-2.152,1.955-2.573,3.141-.594,1.672.8,2.491,1.782,3.43,1.558,1.5-.6,5.014-1.655,6.141a7.058,7.058,0,0,1-4.7,2.091c-1.655.134-2.131-2.072-3.856-2.314a3.11,3.11,0,0,0-2.409,1.046,39.684,39.684,0,0,0-3.34,3.255c-.974,1.031-1.835,2.134-1.573,3.65a4.9,4.9,0,0,0,2.5,3.217c2.554,1.506,5.9,1.294,8.616.375,6.4-2.164,12.308-7.916,15.206-13.948A13.581,13.581,0,0,0,2401.319-1654.188Zm-2.63,6.042c-2.187,5.54-7.207,10.554-12.47,13.227a11.565,11.565,0,0,1-7.38,1.365c-1.348-.273-3.357-1.147-3.4-2.757-.033-1.216,1.634-2.5,2.461-3.319.615-.613,1.957-2.333,2.845-2.208.7.1.99,1.124,1.44,1.582a2.155,2.155,0,0,0,1.3.645,8.713,8.713,0,0,0,7.277-2.611,9.452,9.452,0,0,0,2.668-6.749,2.641,2.641,0,0,0-1.21-2.218c-.528-.4-1.272-.75-1.04-1.466.157-.485.817-1.009,1.165-1.383.763-.82,1.565-1.605,2.377-2.376.571-.542,1.106-1.15,1.953-1.127a2.808,2.808,0,0,1,2.183,1.748C2400.09-1653.46,2399.621-1650.508,2398.689-1648.146Z" transform="translate(-2373.501 1659.498)" fill="#fff"/>
</svg>
