<svg id="Icon_-_Cart_2" data-name="Icon - Cart_2" xmlns="http://www.w3.org/2000/svg" width="32.823" height="25.358" viewBox="0 0 32.823 25.358">
  <path id="Icon_-_Cart_2-2" data-name="Icon - Cart_2" d="M2243.667-1069.74h-4.219c-2.206-2.437-4.71-4.587-6.81-7.123-.9-1.085-2.437.469-1.545,1.546,1.645,1.987,3.538,3.739,5.344,5.576h-16.211c1.8-1.837,3.7-3.589,5.344-5.576.891-1.076-.648-2.631-1.546-1.546-2.1,2.536-4.6,4.686-6.81,7.123H2213a1.109,1.109,0,0,0-1.054,1.384c.783,4.394,1.458,9.051,3.107,13.219,1.212,3.061,3.712,3.161,6.637,3.227,2.214.05,4.431.047,6.646.012,2.131.033,4.263.037,6.394-.006,2.987-.061,5.642-.079,6.889-3.233,1.648-4.169,2.323-8.824,3.107-13.219A1.11,1.11,0,0,0,2243.667-1069.74Zm-3.4,11.688c-.4,1.362-.7,3.351-2.281,3.794a17.846,17.846,0,0,1-4.281.183q-2.686.033-5.373-.01-2.686.042-5.373.01a17.842,17.842,0,0,1-4.28-.183c-1.581-.443-1.885-2.432-2.28-3.794a93.81,93.81,0,0,1-2.1-9.5h28.068A94.01,94.01,0,0,1,2240.266-1058.052Z" transform="translate(-2211.92 1077.23)" fill="#fff"/>
</svg>
