<svg id="Icon_-_User_2" data-name="Icon - User_2" xmlns="http://www.w3.org/2000/svg" width="24.715" height="21.354" viewBox="0 0 24.715 21.354">
  <path id="Icon_-_User_2-2" data-name="Icon - User_2" d="M2535.769-2479.552c-.843-.481-1.89-.5-1.459-1.585a10.5,10.5,0,0,0,.88-2.792,7.241,7.241,0,0,0-1.374-5.254,6.425,6.425,0,0,0-8.93-1,6.724,6.724,0,0,0-2.357,4.548,7.969,7.969,0,0,0,.2,2.755c.19.749,1.235,2.125.631,2.643a9.459,9.459,0,0,1-1.4.682,12.744,12.744,0,0,0-1.3.858,11.593,11.593,0,0,0-2.1,2.008,9.018,9.018,0,0,0-2.046,5.486.829.829,0,0,0,.818.818c3.747,0,7.489.085,11.234.181a.993.993,0,0,0,.154.011h.3a.843.843,0,0,0,.1-.01c3.762-.1,7.521-.182,11.285-.182a.828.828,0,0,0,.818-.818A10.12,10.12,0,0,0,2535.769-2479.552Zm-14.724,2.633a11.131,11.131,0,0,1,2.431-1.585c.7-.338,1.654-.5,1.965-1.311s-.251-1.477-.607-2.149a6.14,6.14,0,0,1-.637-3.872,4.591,4.591,0,0,1,4.668-4.013,4.584,4.584,0,0,1,4.669,4.013,6.141,6.141,0,0,1-.636,3.872c-.357.673-.924,1.326-.607,2.149s1.268.972,1.964,1.311a11.283,11.283,0,0,1,2.432,1.585,8,8,0,0,1,2.831,4.906c-3.552.012-7.1.092-10.652.183-3.551-.091-7.1-.171-10.652-.183A8.018,8.018,0,0,1,2521.045-2476.918Z" transform="translate(-2516.508 2491.544)" fill="#bfb7b1" opacity="0.84"/>
</svg>
