<?xml version="1.0" encoding="utf-8"?>
<!-- Generator: Adobe Illustrator 18.0.0, SVG Export Plug-In . SVG Version: 6.00 Build 0)  -->
<!DOCTYPE svg PUBLIC "-//W3C//DTD SVG 1.1//EN" "http://www.w3.org/Graphics/SVG/1.1/DTD/svg11.dtd">
<svg version="1.1" id="Layer_1" xmlns="http://www.w3.org/2000/svg" xmlns:xlink="http://www.w3.org/1999/xlink" x="0px" y="0px"
	 viewBox="0 0 252.4 310.7" enable-background="new 0 0 252.4 310.7" xml:space="preserve">
<path fill="#F4F0EB" d="M251.9,220.3c-2.7-1.7-37.1,16.1-37.3,16.8c3,2.7,6.2,5.2,9,7.9c-17.1,23-43,28.5-66.1,15.5
	c-13.4-7.5-19.4-22.1-15-38.3c5.5-20.4,22.7-84.1,24.1-88.4c6,1.4,15.4,4.3,21.6,5.7c3.6,0.8,18.3,5.2,25.8,7.7
	c2,4.5,5.7,8.1,10.7,9.7c9.3,3,19.2-2,22.3-11.3c3-9.3-2.1-19.2-11.3-22.2c-5.2-1.7-10.7-0.8-15,1.9c-0.9-0.3-1.8-0.7-2.7-1
	c-8.2-3.3-35.5-13-43.5-16.4c1.1-10.9,6.7-27.3,16.4-31c0,0,0,0,0,0c13.3-2.7,24.8-12.3,29.3-26.1c6.6-20.2-4.2-41.8-24.2-48.8
	c-0.1,0-0.1,0-0.2-0.1c-0.1,0-0.2-0.1-0.3-0.1c-0.1-0.1-0.2-0.1-0.3-0.1c-0.1,0-0.1,0-0.2,0c-20.2-6.1-41.7,5.1-48.2,25.3
	c-4.5,13.8-0.8,28.4,8.3,38.4c0,0,0,0,0,0c5.6,8.6,0.5,25.3-5,34.7c-8.4-2-36.3-10.2-44.8-12.4c-0.9-0.2-1.9-0.5-2.8-0.8
	c-1.9-4.8-5.8-8.7-11-10.4c-9.3-3-19.2,2-22.2,11.3c-3,9.3,2.1,19.2,11.3,22.3c5,1.6,10.2,0.9,14.4-1.6c7.5,2.4,22.1,7.5,25.4,8.9
	c5.8,2.5,15.2,5.6,20.9,8.1c-1.4,4.4-24.9,66-32.5,85.7c-6,15.6-19.4,23.9-34.7,22.1c-26.3-3.1-44-22.8-44.4-51.4
	c3.8-0.5,7.9-0.7,11.9-1.1c0.3-0.7-17.2-35.3-20.3-35.5C18.5,145.1-0.8,180.1,0,181c2.3,0.4,6.5,0.4,11.9,0.8c1,9.9,1.9,24.7,5,34.1
	c7.9,24,24.8,41.7,43.8,57.7c12.3,10.3,25.1,20.1,32,35.4c0.3,0.6,1.2,1,2.4,1.3c1.1,0.4,2.2,0.6,2.7,0.3
	c14.6-8.3,30.7-8.7,46.7-9.8c24.7-1.7,48.8-6.1,69.3-20.9c8-5.8,17.4-17.2,24-24.6c4.6,2.9,8,5.3,10.1,6.3
	C249.1,261.3,254,221.6,251.9,220.3z M177.7,55.9c-9.1-3.2-14.1-13.2-11.1-22.5c3-9.3,12.9-14.4,22.2-11.6
	c9.1,3.2,14.1,13.2,11.1,22.4C196.9,53.5,187,58.6,177.7,55.9z"/>
</svg>
