<?xml version="1.0" encoding="utf-8"?>
<!-- Generator: Adobe Illustrator 18.0.0, SVG Export Plug-In . SVG Version: 6.00 Build 0)  -->
<!DOCTYPE svg PUBLIC "-//W3C//DTD SVG 1.1//EN" "http://www.w3.org/Graphics/SVG/1.1/DTD/svg11.dtd">
<svg version="1.1" xmlns="http://www.w3.org/2000/svg" xmlns:xlink="http://www.w3.org/1999/xlink" x="0px" y="0px"
	 viewBox="0 0 437.2 129.4" enable-background="new 0 0 437.2 129.4" xml:space="preserve">
<g id="Layer_2">
</g>
<g id="Layer_1">
	<g>
		<g>
			<g>
				<path fill="#FFFFFF" d="M43.9,116.5v2.6h-7.5v-2.6H43.9z"/>
				<path fill="#FFFFFF" d="M68.4,105.8v7.3h9v3h-9v12.8h-3.2v-26h12.6v3H68.4z"/>
				<path fill="#FFFFFF" d="M88.1,128.9h-3.2v-26h3.2V128.9z"/>
				<path fill="#FFFFFF" d="M108,107.8c-0.5-0.8-1.1-1.4-1.7-1.8c-0.7-0.4-1.5-0.6-2.4-0.6c-1.1,0-2.1,0.3-3,1
					c-0.9,0.7-1.3,1.6-1.3,2.7c0,0.9,0.3,1.7,1,2.3c0.7,0.6,1.6,1.1,2.6,1.5l1.9,0.7c1,0.4,1.9,0.8,2.6,1.3c0.8,0.5,1.4,1,2,1.6
					c0.6,0.6,1,1.3,1.3,2.1c0.3,0.8,0.5,1.8,0.5,2.8c0,1.2-0.2,2.2-0.6,3.2c-0.4,1-1,1.9-1.8,2.6c-0.8,0.7-1.6,1.3-2.7,1.7
					c-1,0.4-2.1,0.6-3.2,0.6c-1,0-2-0.2-2.9-0.5c-0.9-0.4-1.7-0.9-2.4-1.5c-0.7-0.7-1.3-1.4-1.8-2.3c-0.5-0.9-0.8-1.8-0.9-2.9
					l3.3-0.7c0,1.4,0.5,2.6,1.5,3.5c1,0.9,2.2,1.4,3.6,1.4c1.4,0,2.5-0.5,3.4-1.5c0.9-1,1.4-2.2,1.4-3.6c0-1.3-0.5-2.3-1.4-3.2
					c-0.4-0.3-0.8-0.7-1.3-0.9c-0.5-0.3-1.1-0.6-1.7-0.8l-1.8-0.8c-0.9-0.4-1.6-0.7-2.2-1.1c-0.6-0.4-1.2-0.8-1.7-1.3
					c-0.5-0.5-0.9-1.1-1.2-1.8c-0.3-0.7-0.4-1.5-0.4-2.3c0-1,0.2-1.9,0.6-2.8c0.4-0.8,1-1.6,1.7-2.1c0.7-0.6,1.5-1,2.5-1.3
					c0.9-0.3,1.9-0.5,2.9-0.5c1.4,0,2.7,0.3,3.9,1c1.1,0.7,2.1,1.6,2.8,2.9L108,107.8z"/>
				<path fill="#FFFFFF" d="M133.7,113.3v-10.5h3.2v26h-3.2v-12.5h-12.4v12.5h-3.2v-26h3.2v10.5H133.7z"/>
				<path fill="#FFFFFF" d="M173.6,125.3c-1,1.2-2.2,2.2-3.6,2.9c-1.3,0.7-2.8,1.1-4.2,1.1c-1.1,0-2.1-0.2-3.1-0.5
					c-1-0.4-1.8-0.9-2.6-1.6c-0.7-0.7-1.3-1.5-1.7-2.4c-0.4-0.9-0.6-2-0.6-3.1c0-1.5,0.4-2.7,1.2-3.8c0.8-1,1.9-2.1,3.4-3.1l1.6-1.2
					c-0.9-0.9-1.5-1.8-2.1-2.8s-0.8-1.9-0.8-2.9c0-1.7,0.6-3.1,1.7-4.2c1.1-1,2.6-1.5,4.3-1.5c1.7,0,3.1,0.5,4.2,1.5
					c1.2,1,1.8,2.3,1.8,3.9c0,0.7-0.1,1.3-0.4,2c-0.3,0.6-0.7,1.2-1.1,1.8c-0.6,0.7-1.7,1.6-3.2,2.7l5.4,6.6l3-3.5l2.1,2.1l-3.2,3.7
					l4.7,5.8h-4L173.6,125.3z M165.6,116.2c-0.3,0.2-0.5,0.3-0.5,0.3c-1.3,0.9-2.3,1.7-3.1,2.5c-0.8,0.8-1.1,1.7-1.1,2.7
					c0,0.6,0.1,1.2,0.4,1.8c0.3,0.6,0.6,1.1,1.1,1.6c0.5,0.4,1,0.8,1.6,1.1c0.6,0.3,1.2,0.4,1.8,0.4c1.1,0,2.1-0.3,3-0.9
					c0.9-0.6,1.9-1.5,3-2.5l-5.8-7L165.6,116.2z M167,111.7c0.1-0.1,0.3-0.2,0.6-0.4c0.8-0.6,1.5-1.2,1.9-1.7
					c0.4-0.5,0.7-1.1,0.7-1.9c0-0.9-0.3-1.6-0.8-2.1c-0.6-0.5-1.3-0.7-2.2-0.7c-0.8,0-1.5,0.3-2.1,0.8c-0.6,0.5-0.8,1.2-0.8,2
					c0,0.5,0.1,1.1,0.4,1.5c0.3,0.5,0.6,1,1.1,1.6l0.1,0.1l0.9,1.1L167,111.7z"/>
				<path fill="#FFFFFF" d="M210.8,107.8c-0.5-0.8-1.1-1.4-1.7-1.8c-0.7-0.4-1.5-0.6-2.4-0.6c-1.1,0-2.1,0.3-3,1
					c-0.9,0.7-1.3,1.6-1.3,2.7c0,0.9,0.3,1.7,1,2.3c0.7,0.6,1.6,1.1,2.6,1.5l1.9,0.7c1,0.4,1.9,0.8,2.6,1.3c0.8,0.5,1.4,1,2,1.6
					c0.6,0.6,1,1.3,1.3,2.1c0.3,0.8,0.5,1.8,0.5,2.8c0,1.2-0.2,2.2-0.6,3.2c-0.4,1-1,1.9-1.8,2.6c-0.8,0.7-1.6,1.3-2.7,1.7
					c-1,0.4-2.1,0.6-3.2,0.6c-1,0-2-0.2-2.9-0.5c-0.9-0.4-1.7-0.9-2.4-1.5c-0.7-0.7-1.3-1.4-1.8-2.3c-0.5-0.9-0.8-1.8-0.9-2.9
					l3.3-0.7c0,1.4,0.5,2.6,1.5,3.5c1,0.9,2.2,1.4,3.6,1.4c1.4,0,2.5-0.5,3.4-1.5c0.9-1,1.4-2.2,1.4-3.6c0-1.3-0.5-2.3-1.4-3.2
					c-0.4-0.3-0.8-0.7-1.3-0.9c-0.5-0.3-1.1-0.6-1.7-0.8l-1.8-0.8c-0.8-0.4-1.6-0.7-2.2-1.1c-0.6-0.4-1.2-0.8-1.7-1.3
					c-0.5-0.5-0.9-1.1-1.2-1.8c-0.3-0.7-0.4-1.5-0.4-2.3c0-1,0.2-1.9,0.6-2.8c0.4-0.8,1-1.6,1.7-2.1c0.7-0.6,1.5-1,2.5-1.3
					c0.9-0.3,1.9-0.5,2.9-0.5c1.4,0,2.7,0.3,3.9,1c1.2,0.7,2.1,1.6,2.8,2.9L210.8,107.8z"/>
				<path fill="#FFFFFF" d="M221.2,102.9h14v3h-10.7v7.3h10.4v3h-10.4v9.8h10.7v3h-14V102.9z"/>
				<path fill="#FFFFFF" d="M246.3,122.3l-3,6.5h-3.5l12.4-27.1l12.4,27.1h-3.5l-3-6.5H246.3z M252.2,108.9l-4.6,10.5h9.2
					L252.2,108.9z"/>
				<path fill="#FFFFFF" d="M273.5,105.8v7.3h9v3h-9v12.8h-3.2v-26h12.6v3H273.5z"/>
				<path fill="#FFFFFF" d="M307.1,103.4c1.7,0.7,3.1,1.7,4.4,2.9c1.3,1.3,2.2,2.7,2.9,4.4c0.7,1.7,1.1,3.4,1.1,5.2
					c0,1.9-0.3,3.7-1.1,5.3c-0.7,1.7-1.7,3.1-2.9,4.3c-1.3,1.2-2.7,2.2-4.4,2.9c-1.7,0.7-3.4,1-5.3,1c-1.9,0-3.6-0.3-5.3-1
					c-1.7-0.7-3.1-1.6-4.4-2.9s-2.2-2.7-2.9-4.3c-0.7-1.7-1.1-3.4-1.1-5.3c0-1.8,0.4-3.6,1.1-5.2c0.7-1.7,1.7-3.1,2.9-4.4
					c1.3-1.3,2.7-2.2,4.4-2.9c1.7-0.7,3.4-1.1,5.2-1.1C303.7,102.3,305.4,102.7,307.1,103.4z M305.8,125.6c1.3-0.5,2.4-1.3,3.3-2.2
					c1-1,1.7-2.1,2.3-3.4c0.5-1.3,0.8-2.7,0.8-4.1c0-1.4-0.3-2.8-0.8-4c-0.5-1.3-1.2-2.4-2.2-3.4c-0.9-1-2-1.7-3.3-2.3
					c-1.3-0.5-2.7-0.8-4.2-0.8c-1.5,0-2.9,0.3-4.2,0.8c-1.3,0.5-2.4,1.3-3.3,2.3c-0.9,1-1.6,2.1-2.2,3.4c-0.5,1.3-0.8,2.6-0.8,4
					c0,1.4,0.3,2.8,0.8,4.1c0.5,1.3,1.3,2.4,2.3,3.4c1,1,2.1,1.7,3.3,2.2c1.3,0.5,2.6,0.8,4,0.8
					C303.2,126.4,304.6,126.1,305.8,125.6z"/>
				<path fill="#FFFFFF" d="M339.1,103.4c1.7,0.7,3.1,1.7,4.4,2.9c1.3,1.3,2.2,2.7,2.9,4.4c0.7,1.7,1.1,3.4,1.1,5.2
					c0,1.9-0.3,3.7-1.1,5.3c-0.7,1.7-1.7,3.1-2.9,4.3c-1.3,1.2-2.7,2.2-4.4,2.9c-1.7,0.7-3.4,1-5.3,1s-3.6-0.3-5.3-1
					c-1.7-0.7-3.1-1.6-4.4-2.9s-2.2-2.7-2.9-4.3c-0.7-1.7-1.1-3.4-1.1-5.3c0-1.8,0.4-3.6,1.1-5.2c0.7-1.7,1.7-3.1,2.9-4.4
					c1.3-1.3,2.7-2.2,4.4-2.9c1.7-0.7,3.4-1.1,5.2-1.1S337.4,102.7,339.1,103.4z M337.8,125.6c1.3-0.5,2.4-1.3,3.3-2.2
					c1-1,1.7-2.1,2.3-3.4c0.5-1.3,0.8-2.7,0.8-4.1c0-1.4-0.3-2.8-0.8-4c-0.5-1.3-1.2-2.4-2.2-3.4c-0.9-1-2-1.7-3.3-2.3
					c-1.3-0.5-2.7-0.8-4.2-0.8c-1.5,0-2.9,0.3-4.2,0.8c-1.3,0.5-2.4,1.3-3.3,2.3c-0.9,1-1.6,2.1-2.2,3.4c-0.5,1.3-0.8,2.6-0.8,4
					c0,1.4,0.3,2.8,0.8,4.1c0.5,1.3,1.3,2.4,2.3,3.4c1,1,2.1,1.7,3.3,2.2c1.3,0.5,2.6,0.8,4,0.8
					C335.2,126.4,336.6,126.1,337.8,125.6z"/>
				<path fill="#FFFFFF" d="M353.8,102.9h5.4c2,0,3.9,0.3,5.7,0.8s3.3,1.3,4.7,2.4c1.3,1.1,2.4,2.4,3.1,4c0.7,1.6,1.1,3.5,1.1,5.6
					c0,2.2-0.4,4.1-1.1,5.7c-0.7,1.7-1.8,3-3.1,4.1c-1.3,1.1-2.9,1.9-4.7,2.5c-1.8,0.5-3.7,0.8-5.8,0.8h-5.3V102.9z M357,125.9h1.1
					c1.7,0,3.4-0.2,4.8-0.5c1.5-0.4,2.8-0.9,3.9-1.7c1.1-0.8,2-1.8,2.7-3.1c0.6-1.3,1-2.9,1-4.7c0-1.8-0.3-3.4-1-4.7
					c-0.6-1.3-1.5-2.3-2.7-3.1c-1.1-0.8-2.4-1.3-3.9-1.7c-1.5-0.3-3.1-0.5-4.8-0.5H357V125.9z"/>
				<path fill="#FFFFFF" d="M400.8,116.5v2.6h-7.5v-2.6H400.8z"/>
			</g>
		</g>
		<g>
			<g>
				<path fill="#FFFFFF" d="M44.9,72.9l-7.7-22.8H16.3L8.2,72.9h7.9v2H0v-2h5L31.8,0.5h8.6L67,72.9h4.8v2H37.4v-2H44.9z M27.2,20.2
					l-9.9,27.6h19.1L27.2,20.2z"/>
				<path fill="#FFFFFF" d="M134.6,3.2v71.7h-14.7L83.7,6.7v66.2h5.8v2H75.1v-2h5.8V3.2h-5.8v-2h29.1L131.8,54V3.2H126v-2h14.4v2
					H134.6z"/>
				<path fill="#FFFFFF" d="M184.1,2.1c-10.9,0-16.3,10.5-16.3,31.5v8.3c0,10,1.4,17.8,4.3,23.4c2.9,5.7,7.1,8.5,12.7,8.5
					c7.7,0,14.8-7.5,21.3-22.5h1.9l-0.7,23.5h-1.2c-0.4-0.8-0.8-1.3-1.2-1.6c-0.4-0.3-0.9-0.5-1.5-0.5c-0.7,0-3.2,0.5-7.6,1.6
					c-4.4,1.1-8.9,1.6-13.5,1.6c-11.4,0-20.3-3.1-26.6-9.3c-6.3-6.2-9.4-15.5-9.4-27.9c0-12.4,3.3-22,9.8-28.7
					C162.7,3.4,171.6,0,182.7,0c4.3,0,8.5,0.5,12.6,1.6c4.1,1.1,6.5,1.6,7.2,1.6c0.7,0,1.2-0.2,1.6-0.5s0.7-0.9,1.2-1.6h1.2
					l0.8,22.9h-1.9c-3.2-7.1-6.4-12.5-9.7-16.3C192.2,4,188.4,2.1,184.1,2.1z"/>
				<path fill="#FFFFFF" d="M250.8,75.9c-11.7,0-20.5-3.2-26.3-9.5c-5.8-6.4-8.7-15.6-8.7-27.6c0-12,3.1-21.5,9.3-28.4
					c6.2-6.9,15-10.4,26.4-10.4c11.4,0,20,3.3,25.8,9.8c5.8,6.6,8.7,15.9,8.7,28c0,12.1-2.9,21.5-8.8,28.1
					C271.3,72.6,262.5,75.9,250.8,75.9z M264.3,42.3v-7.8c0-12.8-0.6-21-1.9-24.3c-1.4-3.9-3.4-6.2-6-7.2c-1.5-0.6-3.3-0.8-5.4-0.8
					c-2.1,0-3.9,0.3-5.4,0.8c-1.5,0.6-2.8,1.5-3.7,2.9s-1.8,2.9-2.4,4.4c-0.6,1.5-1.1,3.7-1.4,6.5c-0.4,4.1-0.6,10.1-0.6,18v7.6
					c0,8.6,0.3,14.7,1,18.3c0.7,3.6,1.5,6.2,2.5,7.7c2.2,3.4,5.5,5.2,10.1,5.2c5.5,0,9.1-2.3,10.8-7
					C263.5,62.1,264.3,53.9,264.3,42.3z"/>
				<path fill="#FFFFFF" d="M324.9,37.6h-5.6v35.3h6.8v2h-34.2v-2h6.8V3.2h-6.8v-2h31.8c9.1,0,15.6,0.5,19.4,1.4
					c3.8,0.9,6.5,2.1,8.1,3.4c3.4,2.7,5.1,7.1,5.1,13.1c0,6-1.5,10.2-4.4,12.8c-2.9,2.6-7.4,4.1-13.5,4.6v0.3
					c5.7,0.8,9.7,2.5,11.9,5.1c2.2,2.6,3.4,7,3.4,13.1v5.6c0,3.7,0.2,6.1,0.6,7.4c0.4,1.3,1.2,1.9,2.5,1.9c1.3,0,2.3-0.6,3-1.7
					c0.7-1.2,1.4-3.6,2.1-7.3l1.8,0.2c-0.8,6-2.1,10-4.1,12c-1.9,2-5.8,3.1-11.5,3.1c-5.8,0-9.8-1.4-12.3-4.1
					c-2.4-2.7-3.6-7.8-3.6-15.2V49c0-3.9-0.5-6.8-1.5-8.6C329.5,38.5,327.6,37.6,324.9,37.6z M319.3,3.2v32.4h3.4c4,0,7-1.2,8.9-3.7
					c1.9-2.5,2.9-6.5,2.9-12v-3.1c0-5.5-0.9-9.2-2.8-11c-1.9-1.8-4.8-2.7-8.9-2.7H319.3z"/>
				<path fill="#FFFFFF" d="M410.2,72.9l-7.7-22.8h-20.9l-8.1,22.8h7.9v2h-16.1v-2h5l26.9-72.4h8.6l26.5,72.4h4.8v2h-34.4v-2H410.2z
					 M392.5,20.2l-9.9,27.6h19.1L392.5,20.2z"/>
			</g>
		</g>
	</g>
</g>
<g id="Layer_3">
</g>
</svg>
