<?xml version="1.0" encoding="utf-8"?>
<!-- Generator: Adobe Illustrator 18.0.0, SVG Export Plug-In . SVG Version: 6.00 Build 0)  -->
<!DOCTYPE svg PUBLIC "-//W3C//DTD SVG 1.1//EN" "http://www.w3.org/Graphics/SVG/1.1/DTD/svg11.dtd">
<svg version="1.1" xmlns="http://www.w3.org/2000/svg" xmlns:xlink="http://www.w3.org/1999/xlink" x="0px" y="0px"
	 viewBox="0 0 603.3 156.5" enable-background="new 0 0 603.3 156.5" xml:space="preserve">
<g id="Layer_2">
</g>
<g id="Layer_1">
	<g>
		<g>
			<g>
				<path fill="#004463" d="M210,130.1v2.6h-7.5v-2.6H210z"/>
				<path fill="#004463" d="M234.5,119.4v7.3h9v3h-9v12.8h-3.2v-26h12.6v3H234.5z"/>
				<path fill="#004463" d="M254.2,142.4H251v-26h3.2V142.4z"/>
				<path fill="#004463" d="M274.1,121.4c-0.5-0.8-1.1-1.4-1.7-1.8c-0.7-0.4-1.5-0.6-2.4-0.6c-1.1,0-2.1,0.3-3,1
					c-0.9,0.7-1.3,1.6-1.3,2.7c0,0.9,0.3,1.7,1,2.3c0.7,0.6,1.6,1.1,2.6,1.5l1.9,0.7c1,0.4,1.9,0.8,2.6,1.3c0.8,0.5,1.4,1,2,1.6
					s1,1.3,1.3,2.1c0.3,0.8,0.5,1.8,0.5,2.8c0,1.2-0.2,2.2-0.6,3.2c-0.4,1-1,1.9-1.8,2.6c-0.8,0.7-1.6,1.3-2.7,1.7
					c-1,0.4-2.1,0.6-3.2,0.6c-1,0-2-0.2-2.9-0.5c-0.9-0.4-1.7-0.9-2.4-1.5c-0.7-0.7-1.3-1.4-1.8-2.3c-0.5-0.9-0.8-1.8-0.9-2.9
					l3.3-0.7c0,1.4,0.5,2.6,1.5,3.5c1,0.9,2.2,1.4,3.6,1.4c1.4,0,2.5-0.5,3.4-1.5c0.9-1,1.4-2.2,1.4-3.6c0-1.3-0.5-2.3-1.4-3.2
					c-0.4-0.3-0.8-0.7-1.3-0.9c-0.5-0.3-1.1-0.6-1.7-0.8l-1.8-0.8c-0.9-0.4-1.6-0.7-2.2-1.1c-0.6-0.4-1.2-0.8-1.7-1.3
					c-0.5-0.5-0.9-1.1-1.2-1.8c-0.3-0.7-0.4-1.5-0.4-2.3c0-1,0.2-1.9,0.6-2.8c0.4-0.8,1-1.6,1.7-2.1c0.7-0.6,1.5-1,2.5-1.3
					s1.9-0.5,2.9-0.5c1.4,0,2.7,0.3,3.9,1c1.1,0.7,2.1,1.6,2.8,2.9L274.1,121.4z"/>
				<path fill="#004463" d="M299.8,126.9v-10.5h3.2v26h-3.2v-12.5h-12.4v12.5h-3.2v-26h3.2v10.5H299.8z"/>
				<path fill="#004463" d="M339.7,138.9c-1,1.2-2.2,2.2-3.6,2.9c-1.3,0.7-2.8,1.1-4.2,1.1c-1.1,0-2.1-0.2-3.1-0.5
					c-1-0.4-1.8-0.9-2.6-1.6c-0.7-0.7-1.3-1.5-1.7-2.4c-0.4-0.9-0.6-2-0.6-3.1c0-1.5,0.4-2.7,1.2-3.8c0.8-1,1.9-2.1,3.4-3.1l1.6-1.2
					c-0.9-0.9-1.5-1.8-2.1-2.8s-0.8-1.9-0.8-2.9c0-1.7,0.6-3.1,1.7-4.2c1.1-1,2.6-1.5,4.3-1.5c1.7,0,3.1,0.5,4.2,1.5
					c1.2,1,1.8,2.3,1.8,3.9c0,0.7-0.1,1.3-0.4,2c-0.3,0.6-0.7,1.2-1.1,1.8c-0.6,0.7-1.7,1.6-3.2,2.7l5.4,6.6l3-3.5l2.1,2.1l-3.2,3.7
					l4.7,5.8h-4L339.7,138.9z M331.7,129.8c-0.3,0.2-0.5,0.3-0.5,0.3c-1.3,0.9-2.3,1.7-3.1,2.5c-0.8,0.8-1.1,1.7-1.1,2.7
					c0,0.6,0.1,1.2,0.4,1.8c0.3,0.6,0.6,1.1,1.1,1.6c0.5,0.4,1,0.8,1.6,1.1c0.6,0.3,1.2,0.4,1.8,0.4c1.1,0,2.1-0.3,3-0.9
					c0.9-0.6,1.9-1.5,3-2.5l-5.8-7L331.7,129.8z M333.1,125.3c0.1-0.1,0.3-0.2,0.6-0.4c0.8-0.6,1.5-1.2,1.9-1.7
					c0.4-0.5,0.7-1.1,0.7-1.9c0-0.9-0.3-1.6-0.8-2.1c-0.6-0.5-1.3-0.7-2.2-0.7c-0.8,0-1.5,0.3-2.1,0.8c-0.6,0.5-0.8,1.2-0.8,2
					c0,0.5,0.1,1.1,0.4,1.5s0.6,1,1.1,1.6l0.1,0.1l0.9,1.1L333.1,125.3z"/>
				<path fill="#004463" d="M376.9,121.4c-0.5-0.8-1.1-1.4-1.7-1.8c-0.7-0.4-1.5-0.6-2.4-0.6c-1.1,0-2.1,0.3-3,1
					c-0.9,0.7-1.3,1.6-1.3,2.7c0,0.9,0.3,1.7,1,2.3c0.7,0.6,1.6,1.1,2.6,1.5l1.9,0.7c1,0.4,1.9,0.8,2.6,1.3c0.8,0.5,1.4,1,2,1.6
					s1,1.3,1.3,2.1c0.3,0.8,0.5,1.8,0.5,2.8c0,1.2-0.2,2.2-0.6,3.2c-0.4,1-1,1.9-1.8,2.6c-0.8,0.7-1.6,1.3-2.7,1.7
					c-1,0.4-2.1,0.6-3.2,0.6c-1,0-2-0.2-2.9-0.5c-0.9-0.4-1.7-0.9-2.4-1.5c-0.7-0.7-1.3-1.4-1.8-2.3c-0.5-0.9-0.8-1.8-0.9-2.9
					l3.3-0.7c0,1.4,0.5,2.6,1.5,3.5c1,0.9,2.2,1.4,3.6,1.4c1.4,0,2.5-0.5,3.4-1.5c0.9-1,1.4-2.2,1.4-3.6c0-1.3-0.5-2.3-1.4-3.2
					c-0.4-0.3-0.8-0.7-1.3-0.9c-0.5-0.3-1.1-0.6-1.7-0.8l-1.8-0.8c-0.8-0.4-1.6-0.7-2.2-1.1c-0.6-0.4-1.2-0.8-1.7-1.3
					c-0.5-0.5-0.9-1.1-1.2-1.8c-0.3-0.7-0.4-1.5-0.4-2.3c0-1,0.2-1.9,0.6-2.8c0.4-0.8,1-1.6,1.7-2.1c0.7-0.6,1.5-1,2.5-1.3
					c0.9-0.3,1.9-0.5,2.9-0.5c1.4,0,2.7,0.3,3.9,1c1.2,0.7,2.1,1.6,2.8,2.9L376.9,121.4z"/>
				<path fill="#004463" d="M387.3,116.4h14v3h-10.7v7.3h10.4v3h-10.4v9.8h10.7v3h-14V116.4z"/>
				<path fill="#004463" d="M412.4,135.9l-3,6.5h-3.5l12.4-27.1l12.4,27.1h-3.5l-3-6.5H412.4z M418.4,122.4l-4.6,10.5h9.2
					L418.4,122.4z"/>
				<path fill="#004463" d="M439.6,119.4v7.3h9v3h-9v12.8h-3.2v-26h12.6v3H439.6z"/>
				<path fill="#004463" d="M473.2,116.9c1.7,0.7,3.1,1.7,4.4,2.9c1.3,1.3,2.2,2.7,2.9,4.4c0.7,1.7,1.1,3.4,1.1,5.2
					c0,1.9-0.3,3.7-1.1,5.3c-0.7,1.7-1.7,3.1-2.9,4.3c-1.3,1.2-2.7,2.2-4.4,2.9c-1.7,0.7-3.4,1-5.3,1c-1.9,0-3.6-0.3-5.3-1
					c-1.7-0.7-3.1-1.6-4.4-2.9c-1.3-1.2-2.2-2.7-2.9-4.3c-0.7-1.7-1.1-3.4-1.1-5.3c0-1.8,0.4-3.6,1.1-5.2c0.7-1.7,1.7-3.1,2.9-4.4
					c1.3-1.3,2.7-2.2,4.4-2.9c1.7-0.7,3.4-1.1,5.2-1.1C469.8,115.9,471.6,116.2,473.2,116.9z M471.9,139.1c1.3-0.5,2.4-1.3,3.3-2.2
					c1-1,1.7-2.1,2.3-3.4c0.5-1.3,0.8-2.7,0.8-4.1c0-1.4-0.3-2.8-0.8-4c-0.5-1.3-1.2-2.4-2.2-3.4c-0.9-1-2-1.7-3.3-2.3
					c-1.3-0.5-2.7-0.8-4.2-0.8c-1.5,0-2.9,0.3-4.2,0.8c-1.3,0.5-2.4,1.3-3.3,2.3c-0.9,1-1.6,2.1-2.2,3.4c-0.5,1.3-0.8,2.6-0.8,4
					c0,1.4,0.3,2.8,0.8,4.1c0.5,1.3,1.3,2.4,2.3,3.4c1,1,2.1,1.7,3.3,2.2c1.3,0.5,2.6,0.8,4,0.8
					C469.4,139.9,470.7,139.7,471.9,139.1z"/>
				<path fill="#004463" d="M505.2,116.9c1.7,0.7,3.1,1.7,4.4,2.9c1.3,1.3,2.2,2.7,2.9,4.4c0.7,1.7,1.1,3.4,1.1,5.2
					c0,1.9-0.3,3.7-1.1,5.3c-0.7,1.7-1.7,3.1-2.9,4.3c-1.3,1.2-2.7,2.2-4.4,2.9c-1.7,0.7-3.4,1-5.3,1s-3.6-0.3-5.3-1
					c-1.7-0.7-3.1-1.6-4.4-2.9c-1.3-1.2-2.2-2.7-2.9-4.3c-0.7-1.7-1.1-3.4-1.1-5.3c0-1.8,0.4-3.6,1.1-5.2c0.7-1.7,1.7-3.1,2.9-4.4
					c1.3-1.3,2.7-2.2,4.4-2.9c1.7-0.7,3.4-1.1,5.2-1.1S503.5,116.2,505.2,116.9z M503.9,139.1c1.3-0.5,2.4-1.3,3.3-2.2
					c1-1,1.7-2.1,2.3-3.4c0.5-1.3,0.8-2.7,0.8-4.1c0-1.4-0.3-2.8-0.8-4c-0.5-1.3-1.2-2.4-2.2-3.4c-0.9-1-2-1.7-3.3-2.3
					c-1.3-0.5-2.7-0.8-4.2-0.8c-1.5,0-2.9,0.3-4.2,0.8c-1.3,0.5-2.4,1.3-3.3,2.3c-0.9,1-1.6,2.1-2.2,3.4c-0.5,1.3-0.8,2.6-0.8,4
					c0,1.4,0.3,2.8,0.8,4.1c0.5,1.3,1.3,2.4,2.3,3.4c1,1,2.1,1.7,3.3,2.2c1.3,0.5,2.6,0.8,4,0.8
					C501.4,139.9,502.7,139.7,503.9,139.1z"/>
				<path fill="#004463" d="M519.9,116.4h5.4c2,0,3.9,0.3,5.7,0.8s3.3,1.3,4.7,2.4c1.3,1.1,2.4,2.4,3.1,4c0.7,1.6,1.1,3.5,1.1,5.6
					c0,2.2-0.4,4.1-1.1,5.7c-0.7,1.7-1.8,3-3.1,4.1c-1.3,1.1-2.9,1.9-4.7,2.5c-1.8,0.5-3.7,0.8-5.8,0.8h-5.3V116.4z M523.1,139.5
					h1.1c1.7,0,3.4-0.2,4.8-0.5c1.5-0.4,2.8-0.9,3.9-1.7c1.1-0.8,2-1.8,2.7-3.1c0.6-1.3,1-2.9,1-4.7c0-1.8-0.3-3.4-1-4.7
					c-0.6-1.3-1.5-2.3-2.7-3.1c-1.1-0.8-2.4-1.3-3.9-1.7c-1.5-0.3-3.1-0.5-4.8-0.5h-1.1V139.5z"/>
				<path fill="#004463" d="M567,130.1v2.6h-7.5v-2.6H567z"/>
			</g>
		</g>
		<g>
			<g>
				<path fill="#004463" d="M211,86.5l-7.7-22.8h-20.9l-8.1,22.8h7.9v2h-16.1v-2h5l26.9-72.4h8.6l26.5,72.4h4.8v2h-34.4v-2H211z
					 M193.3,33.8l-9.9,27.6h19.1L193.3,33.8z"/>
				<path fill="#004463" d="M300.8,16.7v71.7H286l-36.1-68.2v66.2h5.8v2h-14.4v-2h5.8V16.7h-5.8v-2h29.1l27.6,52.9V16.7h-5.8v-2
					h14.4v2H300.8z"/>
				<path fill="#004463" d="M350.3,15.7c-10.9,0-16.3,10.5-16.3,31.5v8.3c0,10,1.4,17.8,4.3,23.4c2.9,5.7,7.1,8.5,12.7,8.5
					c7.7,0,14.8-7.5,21.3-22.5h1.9l-0.7,23.5h-1.2c-0.4-0.8-0.8-1.3-1.2-1.6c-0.4-0.3-0.9-0.5-1.5-0.5c-0.7,0-3.2,0.5-7.6,1.6
					c-4.4,1.1-8.9,1.6-13.5,1.6c-11.4,0-20.3-3.1-26.6-9.3c-6.3-6.2-9.4-15.5-9.4-27.9c0-12.4,3.3-22,9.8-28.7
					c6.6-6.7,15.4-10.1,26.5-10.1c4.3,0,8.5,0.5,12.6,1.6c4.1,1.1,6.5,1.6,7.2,1.6c0.7,0,1.2-0.2,1.6-0.5c0.4-0.3,0.7-0.9,1.2-1.6
					h1.2l0.8,22.9h-1.9c-3.2-7.1-6.4-12.5-9.7-16.3C358.4,17.5,354.5,15.7,350.3,15.7z"/>
				<path fill="#004463" d="M416.9,89.5c-11.7,0-20.5-3.2-26.3-9.5c-5.8-6.4-8.7-15.6-8.7-27.6c0-12,3.1-21.5,9.3-28.4
					c6.2-6.9,15-10.4,26.4-10.4c11.4,0,20,3.3,25.8,9.8c5.8,6.6,8.7,15.9,8.7,28c0,12.1-2.9,21.5-8.8,28.1
					C437.5,86.2,428.7,89.5,416.9,89.5z M430.4,55.9v-7.8c0-12.8-0.6-21-1.9-24.3c-1.4-3.9-3.4-6.2-6-7.2c-1.5-0.6-3.3-0.8-5.4-0.8
					s-3.9,0.3-5.4,0.8c-1.5,0.6-2.8,1.5-3.7,2.9c-1,1.4-1.8,2.9-2.4,4.4c-0.6,1.5-1.1,3.7-1.4,6.5c-0.4,4.1-0.6,10.1-0.6,18v7.6
					c0,8.6,0.3,14.7,1,18.3c0.7,3.6,1.5,6.2,2.5,7.7c2.2,3.4,5.5,5.2,10.1,5.2c5.5,0,9.1-2.3,10.8-7
					C429.6,75.6,430.4,67.5,430.4,55.9z"/>
				<path fill="#004463" d="M491,51.2h-5.6v35.3h6.8v2H458v-2h6.8V16.7H458v-2h31.8c9.1,0,15.6,0.5,19.4,1.4
					c3.8,0.9,6.5,2.1,8.1,3.4c3.4,2.7,5.1,7.1,5.1,13.1c0,6-1.5,10.2-4.4,12.8c-2.9,2.6-7.4,4.1-13.5,4.6v0.3
					c5.7,0.8,9.7,2.5,11.9,5.1c2.2,2.6,3.4,7,3.4,13.1V74c0,3.7,0.2,6.1,0.6,7.4c0.4,1.3,1.2,1.9,2.5,1.9c1.3,0,2.3-0.6,3-1.7
					c0.7-1.2,1.4-3.6,2.1-7.3l1.8,0.2c-0.8,6-2.1,10-4.1,12c-1.9,2-5.8,3.1-11.5,3.1c-5.8,0-9.8-1.4-12.3-4.1
					c-2.4-2.7-3.6-7.8-3.6-15.2v-7.7c0-3.9-0.5-6.8-1.5-8.6C495.6,52.1,493.7,51.2,491,51.2z M485.4,16.7v32.4h3.4
					c4,0,7-1.2,8.9-3.7c1.9-2.5,2.9-6.5,2.9-12v-3.1c0-5.5-0.9-9.2-2.8-11c-1.9-1.8-4.8-2.7-8.9-2.7H485.4z"/>
				<path fill="#004463" d="M576.3,86.5l-7.7-22.8h-20.9l-8.1,22.8h7.9v2h-16.1v-2h5l26.9-72.4h8.6l26.5,72.4h4.8v2h-34.4v-2H576.3z
					 M558.6,33.8l-9.9,27.6h19.1L558.6,33.8z"/>
			</g>
		</g>
	</g>
	<path fill="#004463" d="M121.5,91.8c-1.5-0.4-14.6,12.9-14.6,13.3c1.8,0.8,3.6,1.5,5.3,2.3c-4.4,13.1-15.5,19.5-28,17
		c-7.3-1.5-12.2-7.2-12.6-15.3c-0.5-10.2-2.1-42-2.1-44.2c3-0.3,7.7-0.3,10.8-0.6c1.8-0.2,9.2-0.3,13-0.3c1.6,1.8,3.8,2.9,6.4,2.9
		c4.7,0,8.5-3.8,8.5-8.5c0-4.7-3.8-8.5-8.5-8.5c-2.7,0-5,1.2-6.6,3.1c-0.5,0-0.9,0-1.4-0.1c-4.2-0.3-18.3-0.7-22.4-1
		c-1.1-5.1-1-13.5,2.9-16.7c0,0,0,0,0,0c5.7-3.2,9.5-9.3,9.5-16.4C81.5,8.6,73.4,0.2,63.2,0c0,0-0.1,0-0.1,0c0,0-0.1,0-0.1,0
		c-0.1,0-0.1,0-0.1,0c0,0-0.1,0-0.1,0C52.5,0.2,44.3,8.6,44.3,18.8c0,7,3.8,13.1,9.5,16.4c0,0,0,0,0,0c3.9,3.1,4,11.5,2.9,16.7
		c-4.2,0.3-18.2,0.7-22.4,1c-0.5,0-0.9,0.1-1.4,0.1c-1.6-1.9-3.9-3.1-6.6-3.1c-4.7,0-8.5,3.8-8.5,8.5c0,4.7,3.8,8.5,8.5,8.5
		c2.5,0,4.8-1.1,6.4-2.9c3.8,0,11.2,0.1,13,0.3c3.1,0.3,7.8,0.3,10.8,0.6c0,2.2-1.6,34-2.1,44.2c-0.4,8.1-5.3,13.9-12.6,15.3
		c-12.5,2.5-23.6-3.9-28-17c1.7-0.8,3.5-1.5,5.3-2.3c0-0.4-13.2-13.6-14.6-13.3c-1.2,0.3-4.8,19.2-4.3,19.5c1.1-0.1,3-0.8,5.6-1.4
		c1.9,4.4,4.6,11.1,7.4,14.9c7.2,9.9,17.6,15.5,28.7,19.9c7.2,2.9,14.5,5.5,20,11.5c0.2,0.2,0.7,0.3,1.3,0.3c0.6,0,1.1,0,1.3-0.3
		c5.4-6,12.8-8.6,20-11.5c11.1-4.5,21.5-10.1,28.7-19.9c2.8-3.8,5.4-10.5,7.4-14.9c2.5,0.6,4.4,1.3,5.6,1.4
		C126.3,111.1,122.7,92.1,121.5,91.8z M62.9,27.5c-4.7-0.1-8.4-3.9-8.4-8.7c0-4.7,3.8-8.5,8.4-8.6c4.7,0.1,8.4,3.9,8.4,8.6
		C71.4,23.5,67.6,27.3,62.9,27.5z"/>
</g>
<g id="Layer_3">
</g>
</svg>
