<svg xmlns="http://www.w3.org/2000/svg" width="29.95" height="30.345" viewBox="0 0 29.95 30.345">
  <g id="Icon_-_Time" data-name="Icon - Time" transform="translate(0.146 0.514)">
    <rect id="Square" width="29.803" height="29.803" fill="none"/>
    <path id="Icon_-_Time-2" data-name="Icon - Time" d="M8.948,28.526C3.01,26.431-.036,20.7,0,14.646A17.892,17.892,0,0,1,2.065,5.791a11.942,11.942,0,0,1,8.2-5.462A15.242,15.242,0,0,1,26.845,7.721a14.647,14.647,0,0,1-1.483,16.691A15.6,15.6,0,0,1,13.809,29.33,14.623,14.623,0,0,1,8.948,28.526Zm-.33-25.7C3.585,4.71,2,9.678,1.957,14.646c-.035,5.937,3.31,11.411,9.467,12.507,5.018.892,10.762-1.107,13.568-5.479,2.885-4.494,2.224-10.443-.9-14.63a13.068,13.068,0,0,0-10.547-5.1A14.071,14.071,0,0,0,8.618,2.828Zm5.956,13.05c-.74-.005-1.257.023-1.6-.731a8.88,8.88,0,0,1-.212-3.1c-.032-1.429-.007-2.857.053-4.285.053-1.257,2.01-1.258,1.957,0-.049,1.16-.076,2.32-.065,3.481a22.037,22.037,0,0,0,.009,2.747c.563,0,1.193-.1,1.705-.11l2.373-.054a.979.979,0,0,1,0,1.956c-1.31.03-2.625.1-3.937.1Z" transform="translate(0.354 0.001)" fill="#131313" stroke="rgba(0,0,0,0)" stroke-width="1" opacity="0.84"/>
  </g>
</svg>
