<svg xmlns="http://www.w3.org/2000/svg" width="25.246" height="25.728" viewBox="0 0 25.246 25.728">
  <g id="Icon_-_Time" data-name="Icon - Time" transform="translate(0.5 0.512)">
    <path id="Icon_-_Time-2" data-name="Icon - Time" d="M7.54,24.038c-5-1.766-7.571-6.591-7.54-11.7A15.077,15.077,0,0,1,1.74,4.879,10.063,10.063,0,0,1,8.649.277,12.844,12.844,0,0,1,22.621,6.506a12.343,12.343,0,0,1-1.25,14.065,13.148,13.148,0,0,1-9.735,4.144A12.322,12.322,0,0,1,7.54,24.038ZM7.262,2.383c-4.241,1.586-5.58,5.772-5.613,9.959-.03,5,2.79,9.615,7.977,10.539,4.229.752,9.069-.933,11.434-4.617A11.028,11.028,0,0,0,11.412,1.635,11.857,11.857,0,0,0,7.262,2.383Zm5.019,11c-.623,0-1.059.02-1.348-.616a7.483,7.483,0,0,1-.179-2.612c-.027-1.2-.006-2.408.044-3.611.045-1.059,1.693-1.06,1.649,0-.041.977-.064,1.955-.055,2.933a18.57,18.57,0,0,0,.007,2.315c.475,0,1.005-.083,1.437-.093l2-.045a.825.825,0,0,1,0,1.648c-1.1.025-2.212.081-3.317.081Z" fill="#bfb7b1" stroke="rgba(0,0,0,0)" stroke-width="1" opacity="0.84"/>
  </g>
</svg>
