<?xml version="1.0" encoding="utf-8"?>
<!-- Generator: Adobe Illustrator 18.0.0, SVG Export Plug-In . SVG Version: 6.00 Build 0)  -->
<!DOCTYPE svg PUBLIC "-//W3C//DTD SVG 1.1//EN" "http://www.w3.org/Graphics/SVG/1.1/DTD/svg11.dtd">
<svg version="1.1" id="Layer_1" xmlns="http://www.w3.org/2000/svg" xmlns:xlink="http://www.w3.org/1999/xlink" x="0px" y="0px"
	 viewBox="0 0 713.5 713.5" enable-background="new 0 0 713.5 713.5" xml:space="preserve">
<circle fill="#34E0A1" cx="356.7" cy="356.7" r="356.7"/>
<path d="M577.1,287.2l43-46.8h-95.5c-47.8-32.6-105.5-51.7-167.9-51.7c-62.3,0-119.9,19.1-167.6,51.7H93.4l43,46.8
	c-26.4,24.1-42.9,58.8-42.9,97.3c0,72.7,58.9,131.6,131.6,131.6c34.5,0,66-13.3,89.4-35.1l42.2,45.9l42.2-45.9
	c23.5,21.8,54.9,35,89.4,35C561,516,620,457.1,620,384.4C620,345.9,603.5,311.2,577.1,287.2z M225.2,473.5c-49.2,0-89-39.9-89-89
	s39.9-89,89-89s89,39.9,89,89S274.4,473.5,225.2,473.5z M356.8,381.8c0-58.6-42.6-108.9-98.9-130.4c30.4-12.7,63.8-19.8,98.8-19.8
	s68.4,7.1,98.9,19.8C399.4,273,356.8,323.2,356.8,381.8z M488.4,473.5c-49.2,0-89-39.9-89-89s39.9-89,89-89s89,39.9,89,89
	S537.6,473.5,488.4,473.5z M488.4,337.7c-25.8,0-46.7,20.9-46.7,46.7c0,25.8,20.9,46.7,46.7,46.7c25.8,0,46.7-20.9,46.7-46.7
	C535,358.6,514.2,337.7,488.4,337.7z M271.8,384.4c0,25.8-20.9,46.7-46.7,46.7s-46.7-20.9-46.7-46.7c0-25.8,20.9-46.7,46.7-46.7
	C251,337.7,271.8,358.6,271.8,384.4z"/>
</svg>
